<svg xmlns="http://www.w3.org/2000/svg" version="1.0" width="300.000000pt" height="300.000000pt" viewBox="0 0 300.000000 300.000000" preserveAspectRatio="xMidYMid meet">

<g transform="translate(0.000000,300.000000) scale(0.100000,-0.100000)" fill="#ffffff" stroke="none">
<path d="M1457 2788 c-40 -72 -722 -1300 -759 -1368 -14 -25 -139 -250 -278 -500 -139 -250 -256 -459 -261 -464 -5 -6 -9 -14 -9 -18 0 -4 207 -8 459 -8 l460 0 64 118 65 117 -311 5 c-194 3 -312 9 -313 15 -2 6 62 127 141 270 80 143 286 513 457 823 172 309 317 561 323 559 8 -3 377 -659 743 -1322 49 -88 142 -256 206 -373 l118 -212 135 0 c125 0 135 1 129 18 -7 18 -52 100 -281 512 -81 146 -171 308 -200 360 -28 52 -175 316 -325 585 -150 270 -297 533 -326 586 -71 132 -195 353 -199 357 -2 2 -19 -25 -38 -60z" fill="#ffffff"/>
<path d="M1231 1430 c-143 -258 -261 -474 -261 -480 0 -6 59 -10 164 -10 l164 0 73 133 c106 194 118 212 133 196 7 -8 115 -200 241 -426 l229 -413 163 0 c98 0 163 4 163 10 0 5 -24 53 -54 107 -80 147 -748 1348 -751 1351 -1 1 -120 -209 -264 -468z" fill="#ffffff"/>
</g>
</svg>